<svg width="23" height="23" viewBox="0 0 23 23" fill="none" xmlns="http://www.w3.org/2000/svg">
<path d="M0.283224 0.0719114C0.14386 0.139346 0 0.364126 0 0.512482C0 0.656341 0.130373 0.894609 0.251754 0.97553C0.364145 1.04746 0.5125 1.06095 1.55099 1.07893L2.71985 1.10141L2.93114 1.22279C3.19189 1.38014 3.39419 1.58244 3.50658 1.79823C3.60099 1.98704 6.9682 12.1022 6.9682 12.2011C6.9682 12.237 6.88279 12.4708 6.77939 12.7271C6.59057 13.1856 6.59057 13.2036 6.58608 13.7341C6.58608 14.1836 6.60406 14.323 6.68947 14.5748C6.9682 15.384 7.63355 15.9909 8.47423 16.2067C8.86535 16.3056 19.4031 16.3101 19.5964 16.2112C19.7717 16.1168 19.8706 15.9504 19.8706 15.7346C19.8706 15.5908 19.8391 15.5188 19.7178 15.384L19.5649 15.2176L14.0848 15.1952L8.6091 15.1727L8.36634 15.0378C8.11908 14.9029 7.89879 14.6647 7.75044 14.3859C7.692 14.2691 7.66952 14.1252 7.66502 13.824C7.66502 13.4778 7.68301 13.3789 7.7954 13.1182C7.91678 12.8305 7.93026 12.8215 8.11009 12.7945C8.20899 12.781 10.731 12.5158 13.7116 12.2056C16.6922 11.8954 19.2412 11.6211 19.3761 11.5942C19.9156 11.4908 20.4775 11.2075 20.8776 10.8389C21.1698 10.5692 21.4711 10.0881 21.6239 9.64308C21.7902 9.15755 23.0265 3.86621 22.9996 3.75382C22.9681 3.62345 22.8152 3.4706 22.6579 3.40766C22.586 3.37619 19.3671 3.31775 13.8375 3.24132C9.04518 3.17389 5.11601 3.11095 5.11151 3.09746C5.10252 3.08847 4.96765 2.69735 4.81031 2.2343C4.49112 1.28573 4.34276 1.007 3.93816 0.638359C3.65044 0.377613 3.16042 0.125859 2.79627 0.0494334C2.6614 0.0224597 2.09496 -1.83959e-05 1.49254 -1.83959e-05C0.615899 -1.83959e-05 0.40011 0.0134684 0.283224 0.0719114ZM14.6557 4.32027C18.5759 4.37421 21.7857 4.42367 21.7947 4.43266C21.8307 4.45963 20.6214 9.3059 20.527 9.5127C20.3966 9.79593 20.0594 10.1691 19.8032 10.3174C19.7043 10.3759 19.502 10.4568 19.3536 10.4972C19.1198 10.5557 8.39781 11.6886 8.04715 11.6886H7.91678L7.2784 9.74198C6.92774 8.67652 6.37029 6.98167 6.04211 5.98364L5.44419 4.16742L6.48717 4.19439C7.06261 4.21237 10.7355 4.26632 14.6557 4.32027Z" fill="#003755"/>
<path d="M6.83334 17.6498C6.38378 17.7442 6.01514 17.951 5.67347 18.2927C4.90922 19.0525 4.73389 20.0909 5.20144 21.0755C5.36328 21.4171 5.87578 21.9296 6.23543 22.114C6.96821 22.4781 7.76843 22.4781 8.46975 22.105C8.83839 21.9117 9.30593 21.4351 9.48576 21.071C9.69705 20.6349 9.78247 20.1269 9.71953 19.6728C9.60714 18.8861 9.10363 18.1938 8.38433 17.8476C7.85385 17.5869 7.3908 17.5284 6.83334 17.6498ZM7.93027 18.8097C8.40231 19.039 8.64957 19.4571 8.65407 20.0055C8.65407 20.4011 8.55516 20.6304 8.25845 20.9406C7.9033 21.3048 7.27391 21.4171 6.80637 21.2014C5.73641 20.7023 5.76788 19.2278 6.86032 18.7647C7.20198 18.6209 7.57512 18.6344 7.93027 18.8097Z" fill="#003755"/>
<path d="M16.9934 17.6498C16.5349 17.7487 16.1617 17.9555 15.8021 18.3152C15.3076 18.8097 15.1053 19.2997 15.1053 20.01C15.1053 20.6754 15.3256 21.2058 15.8111 21.6869C16.7462 22.622 18.2297 22.622 19.1648 21.6869C19.6503 21.2058 19.8706 20.6754 19.8706 20.01C19.8661 19.2817 19.6773 18.8187 19.1783 18.3197C18.8097 17.951 18.441 17.7487 17.96 17.6453C17.5779 17.5644 17.3756 17.5644 16.9934 17.6498ZM18.0364 18.7782C18.6568 19.0569 18.985 19.8886 18.7152 20.5045C18.3781 21.2688 17.4205 21.552 16.7462 21.0934C15.8381 20.4731 16.0449 19.0614 17.0923 18.7198C17.3441 18.6388 17.7757 18.6658 18.0364 18.7782Z" fill="#003755"/>
</svg>
