<svg width="24" height="24" viewBox="0 0 24 24" fill="none" xmlns="http://www.w3.org/2000/svg">
<path d="M8.13215 19.2542V22.4113H14.6804V21.2758C14.3784 21.2366 13.9451 21.3544 13.9405 20.8878C13.936 20.4213 14.3708 20.5104 14.6834 20.4756V20.1223C14.3723 20.0861 13.9375 20.1918 13.9405 19.7132C13.9435 19.2345 14.3739 19.3599 14.6804 19.3221V18.1822C14.3678 18.152 13.9692 18.2592 13.9254 17.7745C13.9058 17.5148 14.087 17.4318 14.6804 17.388C14.7453 17.1781 14.8525 17.003 15.1167 17.0256C15.3311 17.0437 15.4277 17.1857 15.473 17.3895H21.6438C21.6936 17.1811 21.8038 17.0181 22.0499 17.0226C22.296 17.0271 22.3896 17.1872 22.4364 17.388C23.0298 17.4303 23.1914 17.5118 23.1914 17.7745C23.1985 17.8588 23.175 17.9428 23.125 18.0111C23.0751 18.0794 23.0021 18.1273 22.9196 18.1459C22.7608 18.1718 22.6003 18.1849 22.4395 18.1852V19.3221C22.7414 19.3644 23.1868 19.2406 23.1808 19.7267C23.1808 20.1903 22.752 20.0876 22.4395 20.1208V20.4711C22.7414 20.5209 23.1944 20.3971 23.1808 20.8939C23.1687 21.3589 22.7414 21.2411 22.4379 21.2698V22.4279C22.5527 22.4279 22.669 22.4279 22.7867 22.4279C22.8901 22.4238 22.9909 22.4606 23.0673 22.5305C23.1436 22.6003 23.1893 22.6975 23.1944 22.8008C23.194 22.8539 23.1831 22.9063 23.1622 22.9551C23.1414 23.0039 23.111 23.048 23.0729 23.085C23.0349 23.122 22.9898 23.151 22.9404 23.1703C22.891 23.1897 22.8383 23.1991 22.7852 23.1979C22.7188 23.1979 22.6493 23.1979 22.5814 23.1979C15.2566 23.1979 7.93234 23.1979 0.608581 23.1979C0.510734 23.2025 0.412672 23.1979 0.315671 23.1843C0.225485 23.1678 0.144152 23.1196 0.0863053 23.0485C0.0284583 22.9774 -0.0021055 22.8879 0.000112794 22.7963C0.00578007 22.7051 0.043152 22.6189 0.10575 22.5524C0.168349 22.486 0.252228 22.4435 0.342848 22.4324C0.418273 22.4279 0.493901 22.4279 0.569325 22.4324H5.79188V19.2376C4.63836 19.8324 3.48031 19.8807 2.31924 19.3478C1.48149 18.9622 0.804073 18.2971 0.403242 17.4665C-0.0480553 16.5083 -0.114201 15.4134 0.21846 14.4078C0.551122 13.4022 1.25719 12.5628 2.1909 12.0628C1.50996 11.0059 1.30764 9.88858 1.75606 8.70335C2.20449 7.51812 3.08473 6.81001 4.29563 6.51106C4.276 6.24683 4.14464 6.17738 3.8925 6.18191C3.17532 6.19399 2.45663 6.1955 1.74097 6.16077C0.854686 6.1185 0.12241 5.36508 0.0152113 4.43653C-0.0245174 4.00865 0.0805154 3.57982 0.313484 3.21873C0.546452 2.85764 0.893873 2.5852 1.30009 2.44504C1.38844 2.42642 1.46873 2.38057 1.52966 2.31394C1.5906 2.24732 1.62912 2.16327 1.63981 2.07362C1.78062 1.48059 2.11818 0.952763 2.59746 0.576197C3.07673 0.199631 3.66944 -0.00345832 4.27894 4.45654e-05C4.88845 0.00354745 5.47878 0.213436 5.9537 0.595486C6.42861 0.977535 6.76009 1.50921 6.89407 2.10381C6.92276 2.23215 6.96202 2.29858 7.10696 2.30764C7.57524 2.33965 8.02931 2.48196 8.43208 2.72297C8.83485 2.96398 9.1749 3.29684 9.42446 3.69436C9.67402 4.09189 9.826 4.54281 9.86801 5.0103C9.91002 5.47779 9.84085 5.94858 9.66615 6.38423C9.65256 6.41895 9.64501 6.4567 9.62841 6.50955C10.8529 6.81151 11.7422 7.52869 12.1861 8.71845C12.63 9.90821 12.4262 11.0149 11.7331 12.0733C12.8187 12.6773 13.5449 13.556 13.8137 14.7639C14.0433 15.7202 13.9194 16.7272 13.4649 17.5994C12.6738 19.15 10.4196 20.4439 8.13215 19.2542ZM6.53322 17.5148C5.71639 16.698 4.91466 15.8993 4.11747 15.0991C4.04453 15.0335 3.98147 14.9577 3.93024 14.8741C3.89123 14.801 3.87734 14.7171 3.89071 14.6354C3.90409 14.5536 3.94399 14.4785 4.00426 14.4217C4.06453 14.3649 4.14182 14.3294 4.22421 14.3209C4.30661 14.3123 4.38953 14.3311 4.4602 14.3743C4.52843 14.4216 4.59122 14.4763 4.64742 14.5374L6.3928 16.2813C6.44112 16.3296 6.49547 16.3734 6.5755 16.4458C6.5755 15.1444 6.5755 13.8912 6.5755 12.638C6.5627 12.5519 6.5212 12.4726 6.45773 12.413C6.05158 11.9978 5.63788 11.5887 5.22569 11.178C5.08226 11.027 4.93429 10.8926 4.79539 10.7447C4.75516 10.7101 4.7223 10.6677 4.69878 10.6202C4.67525 10.5726 4.66152 10.5208 4.65842 10.4679C4.65532 10.4149 4.66291 10.3618 4.68074 10.3119C4.69856 10.2619 4.72625 10.216 4.76217 10.177C4.79929 10.1387 4.84393 10.1085 4.8933 10.0882C4.94266 10.068 4.99567 10.0583 5.04899 10.0595C5.10232 10.0608 5.1548 10.0731 5.20314 10.0957C5.25148 10.1182 5.29463 10.1505 5.32987 10.1906C5.41895 10.2706 5.50199 10.3597 5.58655 10.4442L6.5755 11.4498V11.1584C6.5755 10.7054 6.5755 10.2525 6.5755 9.7995C6.5755 9.47036 6.71289 9.29068 6.959 9.28615C7.2051 9.28162 7.34703 9.45979 7.34854 9.78893C7.35005 10.1181 7.34854 10.4095 7.34854 10.719V11.4301C7.44366 11.3426 7.49952 11.2943 7.55086 11.2414C7.89812 10.8957 8.24388 10.5469 8.59265 10.2026C8.71344 10.0849 8.86895 10.0003 9.02145 10.0939C9.08075 10.1277 9.13251 10.1732 9.17354 10.2278C9.21457 10.2823 9.24399 10.3447 9.26 10.411C9.24949 10.5572 9.18616 10.6946 9.08184 10.7975C8.55641 11.3411 8.01438 11.8665 7.48744 12.407C7.41005 12.4896 7.36317 12.5961 7.35458 12.709C7.34552 13.8882 7.35458 15.0658 7.35458 16.2435C7.35458 16.2979 7.36364 16.3537 7.37571 16.4655C7.64296 16.1907 7.87094 15.9506 8.10346 15.7106C8.51867 15.2923 8.9369 14.8771 9.3521 14.4604C9.47893 14.3336 9.63595 14.249 9.80506 14.3366C9.91075 14.394 10.0391 14.5283 10.0406 14.6386C10.0321 14.7913 9.97011 14.9362 9.86545 15.0477C9.32644 15.6079 8.77081 16.1529 8.21972 16.7086C7.95399 16.9743 7.68523 17.2385 7.42101 17.4997C7.85283 18.2833 8.84027 18.8812 9.77637 18.9401C10.4102 18.9671 11.0379 18.8073 11.5817 18.4807C12.1255 18.154 12.5614 17.6748 12.8353 17.1026C13.1144 16.5203 13.2154 15.8685 13.1257 15.2291C13.036 14.5896 12.7595 13.9908 12.331 13.5077C11.9634 13.1051 11.5062 12.7948 10.9963 12.6018C10.6747 12.475 10.6158 12.1971 10.8363 11.9329C10.8801 11.8816 10.9284 11.8333 10.9737 11.7819C11.3199 11.3965 11.5491 10.9204 11.6346 10.4094C11.7202 9.89842 11.6585 9.37364 11.4567 8.89645C11.2549 8.41926 10.9214 8.00938 10.4953 7.71476C10.0691 7.42014 9.56784 7.25296 9.05013 7.23276C8.73911 7.21162 8.57151 7.05007 8.59718 6.81C8.62278 6.69308 8.67099 6.5823 8.73911 6.48388C8.9597 6.14754 9.08455 5.75747 9.10024 5.35555C9.11593 4.95363 9.02188 4.55502 8.82819 4.2025C8.39335 3.3585 7.31834 2.88591 6.44867 3.14561C5.9594 3.27889 5.5312 3.57711 5.23653 3.98981C4.94187 4.40251 4.79883 4.90434 4.83162 5.41038C4.87049 5.84154 5.01519 6.25643 5.25287 6.61825C5.44462 6.92022 5.30269 7.192 4.9509 7.2388C4.89202 7.24786 4.83162 7.2539 4.77123 7.25843C4.39572 7.28948 4.03085 7.39871 3.70005 7.5791C3.36924 7.75949 3.07981 8.00706 2.85034 8.30592C2.62087 8.60477 2.45642 8.94831 2.36756 9.31447C2.27869 9.68063 2.26738 10.0613 2.33434 10.4321C2.43206 10.985 2.69103 11.4966 3.07869 11.9027C3.33536 12.176 3.27195 12.4478 2.92771 12.6018L2.77672 12.6667C1.98433 12.9938 1.35302 13.6203 1.01998 14.4102C0.686943 15.2001 0.679088 16.0896 0.998122 16.8852C1.46617 18.0931 2.38416 18.8012 3.67206 18.928C4.87843 19.0383 5.82057 18.5158 6.53322 17.5148ZM4.04046 5.38471C4.08576 3.91865 4.7818 2.92366 6.13009 2.41031C6.13915 2.38766 6.1467 2.38012 6.14519 2.37408C6.06939 1.91663 5.83027 1.50218 5.47218 1.20761C5.11408 0.913031 4.66131 0.75831 4.19783 0.772137C3.73435 0.785964 3.29161 0.967401 2.95171 1.2828C2.61181 1.5982 2.39783 2.02616 2.34943 2.48731C2.29206 3.00519 2.26035 3.03992 1.76512 3.11541C1.48606 3.15662 1.23173 3.29853 1.0501 3.51437C0.868472 3.73021 0.772111 4.00505 0.779194 4.28705C0.783626 4.57057 0.894971 4.84195 1.09094 5.04688C1.28691 5.25181 1.55305 5.37517 1.83609 5.39226C2.54571 5.42095 3.25534 5.40585 3.96497 5.40736C3.99082 5.40233 4.01611 5.39474 4.04046 5.38471ZM21.6543 18.1867H15.464C15.464 18.5007 15.476 18.8012 15.464 19.1017C15.4549 19.2934 15.5213 19.3402 15.707 19.3387C17.617 19.3387 19.5255 19.3387 21.4354 19.3387C21.5064 19.3387 21.5788 19.3387 21.6543 19.3266V18.1867ZM21.6543 21.2638H15.7508C15.6912 21.2554 15.6308 21.2554 15.5712 21.2638C15.5319 21.2758 15.476 21.3242 15.4745 21.3574C15.4745 21.7077 15.4745 22.0595 15.4745 22.4022H21.6649L21.6543 21.2638ZM7.34703 22.4158V22.1531C7.34703 21.1203 7.3274 20.0876 7.3576 19.0564C7.36667 18.8984 7.33304 18.7408 7.26025 18.6003C7.18746 18.4598 7.07819 18.3414 6.9439 18.2577C6.83368 18.4539 6.57248 18.5309 6.57399 18.8178C6.57399 19.9713 6.57399 21.1234 6.57399 22.2769C6.57399 22.3192 6.57399 22.3629 6.58304 22.4158H7.34703ZM15.4791 20.4696H21.6438V20.1299H15.4791V20.4696Z" fill="#003755"/>
<path d="M18.9562 9.65301C18.1333 9.65301 17.3105 9.67566 16.4876 9.65301C15.5606 9.61979 14.8268 8.88299 14.712 7.93329C14.6676 7.4895 14.7788 7.04405 15.0267 6.67328C15.2746 6.30251 15.6438 6.0295 16.0709 5.90104C16.1321 5.8916 16.1886 5.86272 16.2321 5.81868C16.2756 5.77463 16.3038 5.71775 16.3125 5.65645C16.4049 5.19548 16.6163 4.76669 16.9256 4.41263C17.235 4.05857 17.6315 3.79153 18.0759 3.63801C18.5203 3.48449 18.9971 3.44983 19.459 3.53745C19.9209 3.62508 20.3519 3.83195 20.7091 4.13754C21.1806 4.52649 21.501 5.0681 21.6151 5.66852C21.62 5.72307 21.6425 5.77453 21.6793 5.81512C21.7161 5.85571 21.7651 5.88322 21.8189 5.89349C22.2506 6.01709 22.6256 6.28738 22.8795 6.65778C23.1333 7.02819 23.25 7.47553 23.2095 7.92272C23.1676 8.38668 22.9572 8.81922 22.6181 9.13859C22.279 9.45797 21.8346 9.64204 21.369 9.65603C20.5702 9.68472 19.7685 9.65603 18.9683 9.65603L18.9562 9.65301ZM18.9366 8.88299H21.2451C21.2753 8.88299 21.3055 8.88299 21.3357 8.88299C21.5123 8.87381 21.6844 8.8239 21.8385 8.73715C21.9926 8.6504 22.1245 8.52917 22.2239 8.38295C22.3233 8.23673 22.3876 8.06948 22.4116 7.89429C22.4356 7.71911 22.4188 7.54074 22.3624 7.37314C22.2943 7.15516 22.1615 6.96305 21.9816 6.82229C21.8017 6.68153 21.5833 6.59878 21.3554 6.585C21.0021 6.54122 20.9266 6.46723 20.8783 6.10789C20.8783 6.0475 20.8601 5.98861 20.8541 5.92822C20.7227 4.67052 19.2521 3.87483 18.1243 4.4531C17.8164 4.59698 17.5532 4.82138 17.3623 5.10257C17.1715 5.38375 17.0602 5.71128 17.0402 6.05052C17.007 6.45213 16.9285 6.52612 16.5148 6.58349C16.234 6.61248 15.9741 6.74487 15.7855 6.95491C15.632 7.11388 15.5296 7.31524 15.4917 7.53298C15.4537 7.75072 15.4819 7.97483 15.5726 8.17638C15.6481 8.38451 15.7861 8.56418 15.9678 8.6907C16.1495 8.81722 16.3659 8.88439 16.5873 8.88299C17.3679 8.89507 18.1515 8.88299 18.9366 8.88299Z" fill="#003755"/>
</svg>
