<svg width="22" height="23" viewBox="0 0 22 23" fill="none" xmlns="http://www.w3.org/2000/svg">
<path d="M17.0848 0.0499363C16.8771 0.113146 16.6152 0.361471 13.4728 3.4994L10.0865 6.88114L6.22168 3.79739C4.09511 2.10427 2.27105 0.682037 2.1672 0.632372C1.48544 0.325352 0.659191 0.812973 0.55986 1.58504C0.49665 2.06363 0.42441 1.9643 3.76551 6.15874C5.45412 8.27627 6.84475 10.0281 6.85378 10.0552C6.86281 10.0823 5.35479 11.6174 3.50364 13.473C0.44247 16.5432 0.13545 16.8593 0.0677251 17.0625C-0.022575 17.3424 -0.022575 17.4598 0.0677251 17.7713C0.13545 18.0016 0.221235 18.0964 1.61637 19.4961C2.42456 20.3133 3.14244 21.0086 3.21017 21.0447C3.27789 21.0808 3.37271 21.1079 3.42689 21.1079C3.57137 21.1079 3.74294 20.9093 3.74294 20.7377C3.74294 20.6113 3.63909 20.4894 2.81736 19.6631C2.30717 19.1529 1.89179 18.715 1.89179 18.6879C1.89179 18.6653 2.00015 18.5389 2.13108 18.4079L2.36586 18.1732L3.31401 19.1213C4.3028 20.1101 4.36149 20.1507 4.59627 20.0243C4.72269 19.9611 4.79493 19.7489 4.74075 19.6134C4.71366 19.5548 4.28925 19.0897 3.7926 18.5795L2.8896 17.6539L3.13341 17.4056L3.38174 17.1573L4.32086 18.0919C5.38188 19.1529 5.44058 19.189 5.6889 18.9452C5.93271 18.6969 5.8966 18.6382 4.83557 17.5772L3.90096 16.6381L4.15832 16.3807L4.42019 16.1188L5.35931 17.058C6.19459 17.8887 6.31649 17.9926 6.44291 17.9926C6.62803 17.9926 6.81314 17.821 6.81314 17.6449C6.81314 17.5456 6.64157 17.3514 5.88757 16.5929C5.37737 16.0827 4.96199 15.6448 4.96199 15.6177C4.96199 15.5951 5.07035 15.4687 5.20128 15.3377L5.43606 15.103L6.36164 16.0285C7.16531 16.8322 7.30528 16.9541 7.42718 16.9541C7.62133 16.9541 7.76129 16.8096 7.76129 16.6019C7.76129 16.4439 7.70711 16.3807 6.88087 15.5545C6.39776 15.0714 6.00044 14.656 6.00044 14.6289C6.00044 14.6063 6.10429 14.4799 6.23522 14.349L6.47 14.1097L7.40009 15.0352C7.92835 15.559 8.37082 15.9608 8.42048 15.9653C8.74556 15.9834 8.86747 15.8615 8.84941 15.5364C8.84489 15.4867 8.43854 15.0398 7.91029 14.507L6.97117 13.5679L7.23304 13.306L7.49039 13.0486L8.42951 13.9832C8.94422 14.4934 9.40927 14.9269 9.46345 14.9449C9.58084 14.9765 9.81562 14.8682 9.85625 14.7643C9.95107 14.507 9.91495 14.4573 8.94874 13.473L8.01413 12.5249L8.2444 12.2946L8.47466 12.0689L10.0685 14.069C12.1589 16.6922 12.1408 16.6697 12.1408 16.7058C12.1408 16.7193 12.0912 16.8006 12.0325 16.8774C11.8745 17.0805 11.6126 17.6539 11.5358 17.9564C11.4275 18.3809 11.4049 18.8775 11.4771 19.2793C11.8699 21.4511 14.132 22.625 16.0915 21.6723C16.9313 21.2659 17.5363 20.5571 17.8072 19.6631C17.9471 19.1981 17.9471 18.3538 17.8027 17.8255C17.7756 17.7307 17.7756 17.7262 17.9968 17.7939C18.9585 18.0829 20.2724 17.7442 20.9993 17.0218C22.0332 15.9924 22.2996 14.4076 21.6404 13.1615C21.3063 12.5249 20.8367 12.0824 20.155 11.7573C19.1301 11.2697 17.8614 11.3736 16.9177 12.0237L16.7191 12.1592L14.4841 10.3803C13.2561 9.396 12.2221 8.56524 12.186 8.52911C12.1318 8.47493 12.1499 8.4343 12.3666 8.21758L12.6149 7.96925L13.5405 8.89483C14.4074 9.76171 14.4751 9.82041 14.6331 9.82041C14.7595 9.82041 14.8228 9.79332 14.8905 9.70302C15.0801 9.45921 15.053 9.42309 14.0371 8.39818L13.089 7.45003L13.3509 7.18816L13.6082 6.92629L14.5338 7.87895C15.4187 8.78647 15.4684 8.83162 15.6309 8.82711C15.8522 8.82711 15.9786 8.70069 15.9786 8.47945C15.9786 8.31691 15.9244 8.25821 15.044 7.36876L14.1049 6.42964L14.3667 6.1768L14.6286 5.92396L15.5903 6.87662C16.6468 7.93314 16.6784 7.95119 16.9313 7.70287C17.0712 7.55839 17.0893 7.47712 17.0125 7.32361C16.9854 7.26943 16.5565 6.81793 16.0644 6.32128L15.1659 5.41828L15.4278 5.15641L15.6851 4.89905L16.6333 5.8472C17.464 6.67796 17.5995 6.79535 17.7214 6.79535C17.9065 6.79535 18.0465 6.67345 18.0826 6.48833C18.1142 6.34385 18.0871 6.31225 17.148 5.36861L16.1818 4.4024L16.4391 4.14505L16.6965 3.89221L17.6175 4.79972C18.6154 5.78851 18.6695 5.82463 18.8908 5.59888C18.9675 5.52664 19.0037 5.44085 19.0037 5.34152C19.0037 5.20607 18.9134 5.10674 18.0736 4.29404L17.148 3.39556L17.4099 3.12917L17.6672 2.8673L18.6199 3.81545C19.4687 4.65976 19.5906 4.7636 19.717 4.7636C19.9157 4.7636 20.0873 4.59203 20.0873 4.39337C20.0873 4.26695 19.9834 4.14504 19.1391 3.29622L18.191 2.34356L18.4528 2.0862L18.7102 1.82885L19.6132 2.73636C20.1098 3.23302 20.5613 3.66194 20.6155 3.68C20.7419 3.73418 20.9767 3.65291 21.0354 3.54455C21.0625 3.4994 21.0806 3.39104 21.0806 3.30977C21.0806 3.17432 20.9541 3.03436 19.5816 1.67985C18.7553 0.867153 18.0058 0.162811 17.9155 0.113146C17.6853 -0.00875854 17.3557 -0.0358486 17.0848 0.0499363ZM17.595 0.763308C17.6627 0.799427 17.8298 0.943907 17.9652 1.07936L18.2135 1.3322L14.8679 4.67782L11.5223 8.02343L11.0934 7.68029L10.6644 7.34167L13.9559 4.05475C15.7664 2.24874 17.2789 0.754278 17.3241 0.736217C17.4369 0.691067 17.4595 0.695581 17.595 0.763308ZM3.86936 2.85827C6.77251 5.16995 11.1746 8.6736 14.4345 11.2697L15.8883 12.4301L15.7212 12.4572C15.6264 12.4707 15.044 12.5475 14.4254 12.6242L13.3012 12.7642L7.56263 7.01659C4.40664 3.85609 1.88276 1.30962 1.95048 1.35026C2.02272 1.39541 2.88509 2.07266 3.86936 2.85827ZM13.1748 13.4776C13.3599 13.4776 16.5249 13.0938 16.7326 13.0486C16.7868 13.0351 16.9448 12.9267 17.0803 12.8093C17.4099 12.5204 17.7033 12.3669 18.1277 12.2585C19.55 11.8928 20.9406 12.7506 21.2386 14.1774C21.3198 14.5747 21.3198 14.7734 21.2386 15.1662C21.0535 16.0331 20.4936 16.6877 19.6809 16.9902C19.4597 17.076 19.2655 17.1076 18.8908 17.1212C18.069 17.1573 17.6266 16.9947 16.8997 16.3897C16.2089 15.8118 15.6129 15.5635 14.8273 15.5229C14.132 15.4867 13.5089 15.6493 12.9535 16.0105C12.6872 16.182 12.6691 16.1866 12.6149 16.1098C12.5833 16.0647 10.0233 12.85 6.93053 8.96707C3.83775 5.07965 1.30484 1.88303 1.30484 1.85594C1.30484 1.82885 3.93257 4.43401 7.14274 7.64417L12.9761 13.4776H13.1748ZM7.66648 11.0801C7.84256 11.3013 7.98704 11.5 7.98704 11.518C7.98704 11.5406 6.49258 13.0531 4.66851 14.8772L1.34999 18.1957L1.05651 17.9023C0.857851 17.7036 0.754006 17.5591 0.735946 17.4598C0.704341 17.3063 0.722401 17.2882 4.01835 13.9923C5.84241 12.1682 7.33688 10.6783 7.3414 10.6783C7.3414 10.6783 7.49039 10.8589 7.66648 11.0801ZM15.2517 16.2994C16.1773 16.5207 16.8997 17.2386 17.1344 18.1732C17.2428 18.5976 17.2022 19.2252 17.0441 19.636C16.6875 20.5706 15.8431 21.1982 14.8498 21.2705C13.5992 21.3653 12.475 20.4894 12.2041 19.2116C12.0009 18.2409 12.4479 17.207 13.3283 16.6335C13.5721 16.4755 13.9965 16.3085 14.2629 16.2633C14.5203 16.2182 14.9808 16.2362 15.2517 16.2994Z" fill="#003755"/>
<path d="M18.4614 12.8961C17.8972 12.9909 17.3962 13.3746 17.1389 13.9207C17.008 14.1961 16.9945 14.2592 16.9945 14.6745C16.9945 15.0898 17.008 15.153 17.1389 15.4283C17.3195 15.812 17.6174 16.1099 18.001 16.2904C18.2809 16.4258 18.3396 16.4348 18.7774 16.4348C19.1972 16.4348 19.2829 16.4213 19.5086 16.313C20.2443 15.9699 20.6867 15.1394 20.5422 14.3631C20.3617 13.3836 19.4454 12.7381 18.4614 12.8961ZM19.2919 13.7447C20.2624 14.2592 19.8742 15.7307 18.7638 15.7352C18.3215 15.7352 17.9739 15.5095 17.7889 15.1033C17.5181 14.503 17.8566 13.8034 18.4975 13.6318C18.7684 13.5596 19.0121 13.5957 19.2919 13.7447Z" fill="#003755"/>
<path d="M14.1816 14.1686C13.992 14.3717 14.0913 14.7057 14.3531 14.7644C14.6239 14.8231 14.8451 14.5613 14.7548 14.2904C14.6691 14.0467 14.3576 13.979 14.1816 14.1686Z" fill="#003755"/>
<path d="M14.2174 17.0364C13.3282 17.2757 12.7279 18.1964 12.9039 19.0586C13.0935 20.0155 13.8518 20.6113 14.8042 20.5571C15.4586 20.521 16.0048 20.1464 16.3027 19.537C16.4426 19.2572 16.4517 19.2075 16.4517 18.7607C16.4517 18.3319 16.4381 18.2596 16.3253 18.0294C16.068 17.5059 15.585 17.1177 15.0389 17.0048C14.7229 16.9371 14.5694 16.9462 14.2174 17.0364ZM15.1698 17.8173C15.9461 18.21 15.9281 19.3745 15.1427 19.7356C14.4205 20.0741 13.6216 19.5776 13.6125 18.7832C13.599 17.9753 14.4521 17.4472 15.1698 17.8173Z" fill="#003755"/>
</svg>
