<svg width="24" height="24" viewBox="0 0 24 24" fill="none" xmlns="http://www.w3.org/2000/svg">
<path d="M11.55 0.063261C11.3297 0.124199 6.82031 2.58982 6.64688 2.74451C6.45 2.92264 6.60938 3.32107 6.87656 3.32107C6.95625 3.32107 7.89844 2.8242 9.35156 2.02264L11.6953 0.719511H12H12.3047L16.5 3.04451C18.8063 4.3242 21.0375 5.55701 21.4547 5.7867C21.8719 6.01639 22.2188 6.21795 22.2188 6.2367C22.2188 6.26014 17.6156 6.2742 11.9906 6.2742C3.36094 6.2742 1.77188 6.26482 1.82813 6.20857C1.86563 6.17576 2.74688 5.67889 3.78281 5.10701C4.81875 4.53514 5.69063 4.03357 5.72344 3.99607C5.88281 3.7992 5.70938 3.44764 5.45156 3.44764C5.31563 3.44764 0.304688 6.19451 0.103125 6.38201C0.0046875 6.47107 0 6.51326 0 7.16482C0 8.01326 0.05625 8.23357 0.360938 8.57576C0.623438 8.8617 0.9375 9.02576 1.32656 9.06795L1.59844 9.10076L2.20312 9.9492L2.80781 10.7976L2.8125 15.1148V19.432L2.19375 20.3039L1.575 21.1804H1.11563C0.6 21.1804 0.421875 21.232 0.225 21.4429C0.028125 21.6586 0 21.7945 0 22.5914C0 23.3836 0.0421875 23.5664 0.267188 23.7679C0.529688 24.007 -0.173438 23.9929 12 23.9929C24.1734 23.9929 23.4703 24.007 23.7328 23.7679C23.9578 23.5664 24 23.3836 24 22.5914C24 21.7945 23.9719 21.6586 23.775 21.4429C23.5781 21.232 23.4 21.1804 22.8844 21.1804H22.425L21.8063 20.3039L21.1875 19.432V15.1148L21.1922 10.7976L21.7969 9.9492L22.4016 9.09607L22.6266 9.06795C23.0813 9.00232 23.3063 8.8992 23.5875 8.61795C23.9438 8.2617 24 8.06482 24 7.1742C24 6.50389 24 6.4992 23.8734 6.37264C23.7984 6.30232 23.4563 6.09139 23.1094 5.8992C22.7625 5.7117 20.2734 4.33357 17.5875 2.84295C14.2641 1.00076 12.6094 0.110136 12.4313 0.063261C12.1125 -0.0211143 11.8641 -0.0211143 11.55 0.063261ZM23.2875 7.44139C23.2734 7.9617 23.2125 8.09295 22.9172 8.26639C22.7578 8.36014 22.6734 8.36014 12 8.36014C1.32656 8.36014 1.24219 8.36014 1.08281 8.26639C0.7875 8.09295 0.726562 7.9617 0.7125 7.44139L0.69375 6.97732H12H23.3063L23.2875 7.44139ZM6.24844 9.71951L5.80313 10.3523H4.575H3.34688L2.925 9.75701C2.69531 9.42889 2.50313 9.14295 2.49375 9.1242C2.48438 9.10545 3.42656 9.0867 4.58906 9.0867H6.69844L6.24844 9.71951ZM17.0531 9.95389L17.6719 10.8258V13.0101C17.6719 15.1898 17.6719 15.1992 17.775 15.307C17.9109 15.4523 18.1125 15.4476 18.2578 15.2976L18.375 15.1851V13.1179V11.0554H19.4297H20.4844V15.1336V19.2117H19.4297H18.375V17.9461C18.375 16.6101 18.3609 16.4976 18.1547 16.4039C17.9953 16.3289 17.9344 16.3383 17.7938 16.4508L17.6719 16.5445V17.9836V19.4226L17.0484 20.2992L16.4297 21.1758H12H7.57031L6.95156 20.2992L6.32813 19.4226V15.1242V10.8258L6.94688 9.95389L7.56094 9.0867H12H16.4391L17.0531 9.95389ZM21.5063 9.1242C21.5016 9.14295 21.3047 9.42889 21.075 9.75701L20.6531 10.3523H19.425H18.1969L17.7516 9.71951L17.3016 9.0867H19.4109C20.5734 9.0867 21.5156 9.10545 21.5063 9.1242ZM5.625 15.1336V19.2117H4.57031H3.51563V15.1336V11.0554H4.57031H5.625V15.1336ZM6.26719 20.5476L6.69844 21.157L5.62031 21.1711C5.025 21.1758 4.06875 21.1758 3.49688 21.1711L2.45156 21.157L2.89219 20.5336L3.3375 19.9148L4.58438 19.9242L5.83125 19.9383L6.26719 20.5476ZM21.1078 20.5336L21.5484 21.157L20.475 21.1711C19.8844 21.1758 18.9281 21.1758 18.3469 21.1711L17.2969 21.157L17.6297 20.6883C17.8125 20.4304 18.0141 20.1492 18.0797 20.0648L18.1922 19.9148H19.4297H20.6625L21.1078 20.5336ZM23.2734 22.5867V23.2664H12H0.726562L0.7125 22.6383C0.707813 22.2914 0.7125 21.9773 0.721875 21.9445C0.740625 21.8929 2.79375 21.8836 12.0094 21.8929L23.2734 21.907V22.5867Z" fill="#003755"/>
<path d="M11.1797 11.1773C9.68438 11.5054 8.46095 12.682 8.09063 14.1492C7.74376 15.5086 8.1797 17.0086 9.20626 18.0117C10.05 18.832 11.3109 19.2633 12.4313 19.1226C13.7016 18.9586 14.7234 18.3164 15.4125 17.2476C15.9 16.4929 16.125 15.4289 15.9844 14.5242C15.7359 12.9633 14.5969 11.6789 13.0781 11.2429C12.6047 11.107 11.6484 11.0742 11.1797 11.1773ZM12.7172 11.8804C13.6734 12.0914 14.5547 12.7851 14.9766 13.657C15.2344 14.1867 15.3047 14.5148 15.3 15.157C15.2953 15.6304 15.2766 15.7758 15.1734 16.0945C14.6953 17.5336 13.4766 18.4336 12 18.4336C11.0578 18.4336 10.3688 18.1429 9.67501 17.4539C9.21095 16.9898 8.99532 16.6383 8.80782 16.0242C8.6672 15.5695 8.65313 14.7539 8.7797 14.2898C9.25313 12.5648 10.9922 11.4961 12.7172 11.8804Z" fill="#003755"/>
<path d="M11.7516 12.4008C11.7141 12.4476 11.6672 12.5601 11.6484 12.6539C11.6203 12.8086 11.5969 12.8273 11.4422 12.8554C11.1516 12.9023 10.8563 13.1226 10.7156 13.4039C10.6078 13.6242 10.5938 13.7039 10.5938 14.1586C10.5938 14.482 10.6172 14.7258 10.6547 14.8195C10.8047 15.1664 11.1797 15.4617 11.4844 15.4617H11.625V16.0711C11.625 16.6476 11.6203 16.6804 11.5313 16.6804C11.4188 16.6804 11.3156 16.5258 11.2781 16.2961C11.1938 15.8133 10.5938 15.9023 10.5938 16.3898C10.5938 16.8773 11.0484 17.3836 11.4797 17.3836C11.6016 17.3836 11.6203 17.4023 11.6484 17.5711C11.6813 17.7679 11.85 17.9461 12 17.9461C12.15 17.9461 12.3188 17.7679 12.3516 17.5711C12.3797 17.407 12.3984 17.3836 12.5063 17.3836C12.6984 17.3789 12.9984 17.2242 13.1438 17.0508C13.3641 16.7929 13.4062 16.6336 13.4062 16.0804C13.4062 15.6258 13.3922 15.5461 13.2844 15.3258C13.1438 15.0445 12.8625 14.8336 12.5578 14.782L12.375 14.7492V14.1445C12.375 13.6758 12.3891 13.5398 12.4359 13.5398C12.5391 13.5398 12.7031 13.7508 12.7031 13.882C12.7031 14.0695 12.8906 14.257 13.0781 14.257C13.4109 14.257 13.5094 13.8586 13.2844 13.4039C13.1438 13.1226 12.8625 12.9117 12.5625 12.8601C12.4031 12.832 12.3797 12.8133 12.3516 12.6586C12.3094 12.4195 12.2063 12.3211 12 12.3211C11.8969 12.3211 11.7984 12.3539 11.7516 12.4008ZM11.625 14.1492C11.625 14.6601 11.6156 14.7586 11.5547 14.7586C11.5172 14.7586 11.4422 14.7164 11.3906 14.6648C11.3109 14.5851 11.2969 14.5101 11.2969 14.1633C11.2969 13.8117 11.3109 13.7414 11.4 13.6476C11.6016 13.4367 11.625 13.4929 11.625 14.1492ZM12.5813 15.5601C12.6984 15.6492 12.7031 15.6773 12.7031 16.0664C12.7031 16.5023 12.6375 16.6804 12.4641 16.6804C12.3797 16.6804 12.375 16.6429 12.375 16.0711C12.375 15.7336 12.3938 15.4617 12.4172 15.4617C12.4359 15.4617 12.5109 15.5039 12.5813 15.5601Z" fill="#003755"/>
<path d="M11.7141 2.14922C11.25 2.2289 10.7719 2.59453 10.5422 3.03984C10.3828 3.35859 10.3641 3.9539 10.5047 4.3289C10.6453 4.70859 11.0297 5.09765 11.4047 5.23359C11.7703 5.36953 12.2297 5.36953 12.5953 5.23359C12.9703 5.09765 13.3547 4.70859 13.4953 4.3289C13.6453 3.93984 13.6219 3.35859 13.4438 3.0164C13.1203 2.39297 12.4031 2.03203 11.7141 2.14922ZM12.4172 2.9414C12.5063 2.98828 12.6422 3.10078 12.7219 3.19922C12.8391 3.33984 12.8672 3.42422 12.8813 3.66797C12.9188 4.23984 12.5625 4.63359 12 4.63359C11.475 4.63359 11.1094 4.26328 11.1094 3.74297C11.1094 3.03984 11.7938 2.62265 12.4172 2.9414Z" fill="#003755"/>
</svg>
