<svg width="21" height="19" viewBox="0 0 21 19" fill="none" xmlns="http://www.w3.org/2000/svg">
<path d="M10.3163 0.00744629C7.42748 0.0279636 7.40286 0.0279636 7.23872 0.118238C7.01714 0.233135 6.74221 0.536789 6.63552 0.778891C6.55755 0.951235 6.54524 1.07023 6.52883 1.88271L6.51241 2.79367L4.4525 2.81009C2.15868 2.8265 2.15868 2.8265 1.53906 3.12195C1.35441 3.20812 1.11231 3.35584 0.993308 3.44612C0.706069 3.67591 0.398312 4.09035 0.246485 4.45556C-0.0120307 5.07518 -0.00792723 4.96028 0.00438304 10.6599L0.0166933 15.8261L0.111072 16.1339C0.267002 16.6345 0.472174 16.9833 0.816861 17.328C1.16565 17.6809 1.5842 17.9148 2.15047 18.0748L2.47875 18.1651H10.5009H18.5231L18.8514 18.0748C19.9101 17.7753 20.579 17.1392 20.8908 16.1339L20.9852 15.8261L20.9975 10.6764C21.0057 7.20485 20.9934 5.43217 20.9647 5.23931C20.7554 3.86056 19.828 2.98653 18.4041 2.83881C18.199 2.81829 17.2306 2.79778 16.258 2.79778H14.4813V2.08788C14.4772 0.959442 14.4156 0.688616 14.0627 0.34803C13.8699 0.159273 13.6483 0.048481 13.3939 0.0115509C13.3036 -0.000761032 11.9207 -0.00486374 10.3163 0.00744629ZM13.3857 0.87327C13.5785 0.959442 13.5949 1.03741 13.6113 1.94426L13.6278 2.79778H10.5256H7.42338V1.93195V1.06613L7.54237 0.94713L7.66137 0.828131H10.4763C12.3885 0.828131 13.32 0.840443 13.3857 0.87327ZM18.7283 3.75798C19.4054 3.96315 19.7993 4.33246 20.0291 4.97259L20.1235 5.23931L20.1358 10.3276C20.144 14.8495 20.1399 15.4527 20.0824 15.74C19.9224 16.5278 19.4751 17.012 18.7201 17.2008C18.4165 17.2829 18.2195 17.2829 10.505 17.2829C3.64412 17.2829 2.56902 17.2747 2.34334 17.2213C1.55958 17.0367 1.08358 16.5401 0.919447 15.74C0.861999 15.4527 0.857895 14.8495 0.866102 10.3276L0.878413 5.23931L0.972791 4.97259C1.24362 4.21756 1.73603 3.83184 2.60185 3.70053C2.71675 3.68412 6.33597 3.6718 10.6446 3.67591C18.0759 3.68001 18.4944 3.68412 18.7283 3.75798Z" fill="#003755"/>
<path d="M8.95397 6.10515C8.61749 6.27339 8.57646 6.42111 8.57235 7.54545V8.45641L7.57112 8.46872C6.10209 8.48514 6.19237 8.36203 6.19237 10.3604C6.19237 11.9854 6.19647 11.9977 6.50012 12.1741C6.66836 12.2767 6.68478 12.2767 7.62036 12.2767H8.56825L8.58056 13.2492C8.59287 14.1684 8.59697 14.234 8.68314 14.3694C8.73239 14.4474 8.83497 14.55 8.90883 14.5951C9.03604 14.6731 9.11811 14.6772 10.501 14.6772C12.13 14.6772 12.1013 14.6813 12.3065 14.3777C12.4091 14.234 12.4091 14.2135 12.4214 13.2533L12.4378 12.2767H13.3816C14.3171 12.2767 14.3336 12.2767 14.5018 12.1741C14.8055 11.9977 14.8096 11.9854 14.8096 10.3686C14.8096 8.79289 14.8055 8.75596 14.5469 8.57131C14.4238 8.48514 14.3787 8.48103 13.4267 8.46872L12.4337 8.45641L12.4214 7.4839C12.4091 6.4047 12.3926 6.34315 12.1341 6.15439C11.9987 6.06001 11.9946 6.06001 10.542 6.05181C9.28224 6.0395 9.06887 6.0477 8.95397 6.10515ZM11.535 7.9558C11.5432 8.77648 11.5596 9.035 11.6048 9.10065C11.732 9.29351 11.7771 9.30172 12.8933 9.31403L13.9478 9.32634V10.3727V11.415H12.922C11.8182 11.415 11.7197 11.4314 11.6171 11.6284C11.5843 11.694 11.5637 12.0428 11.5555 12.7691L11.5473 13.8155H10.501H9.45459L9.44638 12.7691C9.43817 12.0428 9.41766 11.694 9.38483 11.6284C9.28224 11.4314 9.18376 11.415 8.07994 11.415H7.05408V10.3686V9.32634L8.12508 9.31403L9.19607 9.30172L9.31507 9.16631L9.43407 9.035V7.96811V6.90122H10.4763H11.5227L11.535 7.9558Z" fill="#003755"/>
</svg>
