<svg width="21" height="21" viewBox="0 0 21 21" fill="none" xmlns="http://www.w3.org/2000/svg">
<path d="M5.2523 10.0427C4.99991 9.59851 5.06048 9.1442 5.06048 8.69873C5.06048 6.37334 5.06048 4.0467 5.06048 1.7188C5.06048 0.64865 5.70534 0 6.77044 0H14.216C15.2635 0 15.9159 0.65496 15.9159 1.70996C15.9159 4.12536 15.9159 6.54077 15.9159 8.95617C15.9159 9.31709 15.9222 9.67801 15.7127 10.0427H15.9575C17.0462 10.0427 18.1349 10.0427 19.2235 10.0427C20.2331 10.0427 20.8956 10.7053 20.8956 11.7173C20.8956 14.2211 20.8956 16.7248 20.8956 19.2286C20.8956 20.2381 20.2318 20.9007 19.2197 20.9019C16.7639 20.9019 14.3082 20.9019 11.8524 20.9019C11.3198 20.9019 10.8428 20.7997 10.4516 20.387C10.2042 20.6463 9.87898 20.8177 9.52531 20.8754C9.41101 20.8895 9.29596 20.8967 9.1808 20.8969H1.67463C0.665056 20.8969 0 20.2331 0 19.2223C0 16.7185 0 14.2148 0 11.711C0 10.7015 0.663793 10.0377 1.67337 10.0377C2.85078 10.0415 4.02693 10.0427 5.2523 10.0427ZM5.88328 5.43655C5.88328 6.68842 5.88328 7.93986 5.88328 9.19089C5.88328 9.74616 6.18237 10.0415 6.74268 10.0415C9.24558 10.0415 11.7476 10.0415 14.2488 10.0415C14.8054 10.0415 15.107 9.74111 15.107 9.18584C15.107 6.68379 15.107 4.18131 15.107 1.67841C15.107 1.11936 14.8079 0.817753 14.2552 0.817753H6.72123C6.17606 0.817753 5.87697 1.11684 5.87697 1.66327C5.87529 2.92187 5.87529 4.17963 5.87697 5.43655H5.88328ZM10.8643 15.4515C10.8643 16.7135 10.8643 17.978 10.8643 19.245C10.8643 19.7763 11.1684 20.0842 11.6959 20.0842C14.2122 20.0842 16.7282 20.0842 19.2437 20.0842C19.7851 20.0842 20.088 19.78 20.088 19.2361V11.7148C20.088 11.1697 19.7864 10.8668 19.245 10.8655H11.7123C11.1558 10.8655 10.8592 11.1646 10.8579 11.7237L10.8643 15.4515ZM10.0478 15.4856V11.7312C10.0478 11.157 9.75373 10.8592 9.18584 10.8592H1.67337C1.11558 10.8592 0.816491 11.1583 0.816491 11.7148V19.2223C0.816491 19.7901 1.11432 20.0842 1.68725 20.0842H9.17322C9.74489 20.0842 10.0402 19.7889 10.0415 19.2185L10.0478 15.4856Z" fill="#003755"/>
<path d="M13.5964 4.93052C13.5466 5.08275 13.4858 5.2312 13.4147 5.37473C13.2996 5.58306 13.1661 5.78071 13.0159 5.96533C12.787 6.23754 12.6742 6.58876 12.7017 6.94335C12.7105 7.16672 12.7017 7.39261 12.6865 7.61598C12.6537 8.2091 12.1818 8.54479 11.6088 8.3883C11.569 8.38005 11.5298 8.36908 11.4915 8.35549C11.1656 8.2046 10.8109 8.12581 10.4518 8.12451C10.0927 8.1232 9.73747 8.19941 9.41048 8.34792C9.23254 8.41266 9.04141 8.43259 8.85395 8.40597C8.48419 8.35802 8.23433 8.02738 8.21287 7.62103C8.1952 7.27399 8.19647 6.92695 8.17249 6.58117C8.16219 6.46193 8.12463 6.34665 8.0627 6.24422C7.8835 5.9565 7.68411 5.68139 7.49608 5.39745C7.17049 4.90023 7.35221 4.34497 7.90495 4.14305C8.28354 4.00297 8.7063 3.93483 9.01801 3.70894C9.32971 3.48305 9.53036 3.09941 9.77519 2.78644C10.1639 2.30185 10.7355 2.30563 11.1242 2.7978C11.3312 3.05902 11.5281 3.32782 11.7426 3.58274C11.8203 3.67382 11.9184 3.74518 12.0291 3.79096C12.3622 3.92599 12.7055 4.03579 13.0386 4.16955C13.196 4.22775 13.3327 4.33091 13.4319 4.4662C13.5311 4.6015 13.5883 4.76297 13.5964 4.93052ZM8.15861 4.9179C8.38071 5.24727 8.58263 5.56024 8.79969 5.86311C8.92976 6.02964 8.99801 6.23616 8.99277 6.4474C8.98141 6.82599 8.99277 7.20458 8.99277 7.62229C9.37136 7.51376 9.70073 7.44057 10.0112 7.32951C10.298 7.2222 10.614 7.2222 10.9009 7.32951C11.2113 7.43804 11.5318 7.51376 11.9104 7.62229C11.9104 7.17429 11.8991 6.76794 11.9104 6.36033C11.9205 6.21389 11.9665 6.07218 12.0442 5.94766C12.2575 5.60315 12.4935 5.27125 12.732 4.9179C12.3345 4.77277 11.9496 4.64405 11.576 4.49009C11.4345 4.43051 11.3085 4.33944 11.2075 4.22382C10.945 3.9159 10.7027 3.59284 10.4415 3.25337C10.1765 3.59284 9.93672 3.91842 9.6717 4.2276C9.57589 4.33777 9.45579 4.42417 9.32088 4.48C8.95743 4.639 8.56748 4.77403 8.15861 4.9179Z" fill="#003755"/>
<path d="M15.478 18.5471C14.8346 18.5483 14.2052 18.3586 13.6697 18.0019C13.1342 17.6453 12.7165 17.1377 12.4697 16.5435C12.2228 15.9493 12.1578 15.2952 12.283 14.6641C12.4081 14.0329 12.7177 13.4531 13.1726 12.998C13.6275 12.543 14.2072 12.2331 14.8383 12.1078C15.4694 11.9824 16.1235 12.0471 16.7178 12.2938C17.3121 12.5404 17.8198 12.9578 18.1767 13.4932C18.5336 14.0286 18.7235 14.6579 18.7225 15.3013C18.7202 16.1612 18.3777 16.9852 17.7697 17.5934C17.1618 18.2016 16.3379 18.5444 15.478 18.5471ZM15.4603 17.7293C15.942 17.7311 16.4134 17.5898 16.8147 17.3234C17.2161 17.057 17.5293 16.6775 17.7147 16.2329C17.9002 15.7883 17.9495 15.2987 17.8564 14.8261C17.7633 14.3535 17.532 13.9191 17.1919 13.5781C16.8517 13.237 16.4179 13.0046 15.9456 12.9103C15.4732 12.816 14.9834 12.864 14.5384 13.0483C14.0933 13.2326 13.713 13.5448 13.4456 13.9455C13.1781 14.3461 13.0356 14.8171 13.0361 15.2988C13.0381 15.9417 13.2939 16.5578 13.748 17.013C14.202 17.4682 14.8174 17.7257 15.4603 17.7293Z" fill="#003755"/>
<path d="M2.19838 15.4704C2.19838 14.7133 2.19838 13.9485 2.19838 13.1863C2.19838 12.5831 2.55804 12.2209 3.16126 12.2196C4.68487 12.2196 6.20764 12.2196 7.72957 12.2196C8.33153 12.2196 8.69371 12.5869 8.69371 13.1888C8.69371 14.7107 8.69371 16.2335 8.69371 17.7571C8.69371 18.3566 8.33026 18.7225 7.72831 18.7238C6.20554 18.7238 4.68276 18.7238 3.15999 18.7238C2.55804 18.7238 2.19964 18.3578 2.19838 17.7546C2.19711 16.9936 2.19838 16.2327 2.19838 15.4704ZM7.87722 15.4704C7.87722 14.7284 7.87722 13.9876 7.87722 13.2469C7.87722 13.0828 7.82548 13.0386 7.66773 13.0386C6.17861 13.0437 4.69034 13.0437 3.2029 13.0386C3.0767 13.0386 3.0073 13.0677 3.00856 13.2191C3.01361 14.7225 3.01361 16.2247 3.00856 17.7256C3.00856 17.8694 3.05651 17.9136 3.19659 17.9124C4.69076 17.9124 6.18576 17.9124 7.68161 17.9124C7.83431 17.9124 7.87848 17.8606 7.87596 17.7104C7.87469 16.9596 7.87848 16.2125 7.87848 15.4654L7.87722 15.4704Z" fill="#003755"/>
</svg>
