<svg width="26" height="21" viewBox="0 0 26 21" fill="none" xmlns="http://www.w3.org/2000/svg">
<path d="M18.6876 15.5453C18.1036 15.7673 17.551 16.015 16.9749 16.1888C13.5604 17.2129 10.2496 16.9848 7.07064 15.3715C6.35532 15.016 5.71618 14.5338 5.18681 13.9501C4.70692 13.4479 4.44806 12.7862 4.46468 12.1041C4.4945 10.9319 4.46468 9.75968 4.47881 8.58595C4.48881 8.51179 4.47152 8.4366 4.42995 8.37341C4.38837 8.31023 4.32512 8.26304 4.25118 8.24003C2.9529 7.66147 1.65934 7.07234 0.365777 6.48925C0.172684 6.40315 0 6.30647 0 6.07233C0 5.83819 0.178964 5.74453 0.370486 5.65691C4.48561 3.79587 8.59916 1.9328 12.7111 0.0677232C12.8004 0.0232251 12.8995 0 13 0C13.1005 0 13.1996 0.0232251 13.2888 0.0677232C17.4082 1.93582 21.5296 3.8014 25.6531 5.66447C25.8367 5.74755 25.9984 5.85027 26 6.07082C26.0016 6.29136 25.8289 6.40315 25.6358 6.49076C24.3422 7.07385 23.0518 7.66298 21.7567 8.24154C21.6824 8.26427 21.6188 8.31134 21.5769 8.37455C21.5351 8.43776 21.5175 8.51311 21.5275 8.58746C21.5385 9.80802 21.5275 11.0301 21.5369 12.2522C21.5389 12.7352 21.3842 13.2068 21.0942 13.6011C20.7147 14.1228 20.2352 14.5699 19.6813 14.9184C19.62 14.9516 19.5701 15.0013 19.5378 15.0614C19.5054 15.1215 19.492 15.1894 19.4992 15.2567C19.5118 15.5588 19.5086 15.8746 19.4992 16.1842C19.4915 16.239 19.5027 16.2946 19.5311 16.3427C19.5594 16.3907 19.6034 16.4284 19.6562 16.4501C20.3626 16.8187 20.5196 17.6208 20.0267 18.2417C19.966 18.324 19.9351 18.4233 19.9388 18.5241C19.9859 19.1661 20.0487 19.8051 20.1036 20.4471C20.1366 20.8505 19.9906 20.9985 19.5699 21C19.2402 21 18.9089 21 18.5793 21C18.2104 21 18.0565 20.8399 18.0848 20.4819C18.135 19.8399 18.2009 19.1994 18.2418 18.5589C18.25 18.4427 18.2174 18.3272 18.1491 18.2311C18.034 18.0972 17.9514 17.9403 17.9074 17.7718C17.8633 17.6034 17.8588 17.4275 17.8943 17.2572C17.9298 17.0868 18.0044 16.9263 18.1125 16.7872C18.2207 16.6481 18.3598 16.5339 18.5196 16.4531C18.574 16.4344 18.6201 16.3985 18.6506 16.3514C18.6811 16.3042 18.6942 16.2485 18.6876 16.1933C18.6782 15.9773 18.6876 15.7598 18.6876 15.5453ZM18.3061 8.94547C18.1978 8.89109 18.1256 8.85333 18.0518 8.81858L12.9058 6.3397C12.6138 6.19771 12.5149 5.99831 12.6248 5.77625C12.7347 5.55419 12.9686 5.50132 13.2747 5.64483L13.3893 5.6977C15.2731 6.60406 17.1538 7.51041 19.0314 8.41677C19.0999 8.45396 19.1772 8.4735 19.2559 8.4735C19.3345 8.4735 19.4119 8.45396 19.4804 8.41677C20.7692 7.82915 22.0628 7.24606 23.3611 6.65542C23.7755 6.4681 24.1899 6.27475 24.6264 6.07535C24.5651 6.04061 24.5369 6.02097 24.5071 6.00737C20.7237 4.29537 16.9393 2.58336 13.1538 0.871358C13.0474 0.836058 12.9308 0.842018 12.8289 0.887975C9.79487 2.25355 6.76452 3.62215 3.73783 4.99376L1.38304 6.0678C1.46468 6.1116 1.51962 6.14635 1.57928 6.17354C5.32077 7.87144 9.06593 9.56683 12.8148 11.2597C12.9418 11.308 13.0833 11.308 13.2104 11.2597C14.3689 10.7461 15.5212 10.2204 16.675 9.69624L18.3061 8.94547ZM18.6876 9.64488C18.5542 9.70077 18.4615 9.73702 18.3736 9.77781C16.6918 10.5391 15.0105 11.302 13.3297 12.0664C13.2298 12.1173 13.1185 12.1439 13.0055 12.1439C12.8925 12.1439 12.7812 12.1173 12.6813 12.0664C10.3223 10.9928 7.96075 9.92232 5.59654 8.85484C5.50078 8.81254 5.40345 8.77176 5.28257 8.72191C5.28257 9.87298 5.29984 10.9878 5.28257 12.1026C5.26579 12.5781 5.44396 13.0409 5.77865 13.3911C6.20653 13.8547 6.70965 14.2486 7.26844 14.5573C8.7385 15.3901 10.3917 15.8781 12.0942 15.9818C14.3081 16.1655 16.5295 15.7223 18.4851 14.7069C18.5537 14.6801 18.6114 14.6327 18.6496 14.5717C18.6878 14.5107 18.7045 14.4394 18.697 14.3685C18.6876 13.5226 18.697 12.6751 18.697 11.8292L18.6876 9.64488ZM19.5008 13.9924L19.595 14.0483C19.8226 13.8096 20.0659 13.577 20.2763 13.3307C20.583 12.999 20.7445 12.5659 20.7268 12.1222C20.7033 11.083 20.719 10.0422 20.719 9.00137V8.71889C20.3532 8.88354 20.0298 9.04064 19.697 9.17206C19.6304 9.19255 19.5736 9.23539 19.537 9.29278C19.5004 9.35017 19.4864 9.4183 19.4976 9.48476C19.4976 10.9168 19.4976 12.3549 19.4976 13.7794L19.5008 13.9924ZM19.5008 17.4743C19.4992 17.3976 19.4741 17.323 19.4285 17.2601C19.383 17.1971 19.3191 17.1486 19.2449 17.1205C19.1707 17.0925 19.0895 17.0862 19.0116 17.1025C18.9337 17.1189 18.8626 17.157 18.8072 17.2122C18.7518 17.2674 18.7146 17.3371 18.7004 17.4126C18.6862 17.4881 18.6955 17.5659 18.7272 17.6363C18.759 17.7067 18.8116 17.7665 18.8786 17.8081C18.9456 17.8497 19.0239 17.8712 19.1036 17.8701C19.2099 17.8665 19.3106 17.8232 19.3842 17.7492C19.4578 17.6753 19.4985 17.5766 19.4976 17.4743H19.5008ZM19.2606 20.2069L19.1319 18.6963H19.0644C19.022 19.1979 18.978 19.6979 18.9325 20.2069H19.2606Z" fill="#003755"/>
</svg>
