<svg width="22" height="16" viewBox="0 0 22 16" fill="none" xmlns="http://www.w3.org/2000/svg">
<path d="M10.3628 0.0796337C9.3726 0.337951 8.6407 1.1086 8.43405 2.10312C8.3092 2.71016 8.42544 3.00723 8.79139 3.00723C9.0454 3.00723 9.17456 2.87807 9.209 2.59392C9.2865 1.97826 9.42857 1.65537 9.7816 1.32386C10.4661 0.678068 11.5209 0.673762 12.2098 1.31094C12.5973 1.67689 12.7652 2.06867 12.7652 2.62406C12.7652 3.58844 12.0763 4.30742 11.0689 4.40214C10.8708 4.41936 10.789 4.4495 10.7029 4.5356L10.591 4.64323L10.5781 5.69372L10.5652 6.74421L5.56243 10.0076C2.81135 11.8029 0.490802 13.3485 0.400391 13.4389C0.30998 13.5293 0.185127 13.7145 0.120548 13.8479C0.0172211 14.0589 0 14.145 0 14.4593C0 14.765 0.0172211 14.864 0.111937 15.0663C0.266928 15.3935 0.499413 15.6389 0.787867 15.781L1.03327 15.9016H10.9785H20.9237L21.1605 15.7896C21.4618 15.6475 21.746 15.3634 21.8881 15.062C21.9785 14.8683 22 14.7607 22 14.4593C22 14.145 21.9828 14.0589 21.8795 13.8479C21.8106 13.7102 21.6728 13.5121 21.5652 13.4088C21.4575 13.2969 19.3135 11.8761 16.4031 9.97748L11.4305 6.73991L11.4391 5.98648L11.4521 5.23736L11.8051 5.11681C12.735 4.80683 13.3636 4.09216 13.5573 3.12777C13.6822 2.51212 13.6133 2.01271 13.3205 1.41858C12.7953 0.355171 11.5209 -0.221737 10.3628 0.0796337ZM15.9425 10.6491C18.6591 12.4143 20.9452 13.9168 21.0184 13.99C21.0959 14.0675 21.1777 14.1924 21.1992 14.2698C21.2896 14.5927 21.0442 15.0061 20.7084 15.1008C20.4673 15.1653 1.53699 15.1697 1.29589 15.1008C0.83953 14.9759 0.671624 14.4076 0.981605 14.0503C1.05049 13.9728 10.9182 7.45889 10.9914 7.44597C10.9957 7.44167 13.2258 8.88394 15.9425 10.6491Z" fill="#003755"/>
</svg>
