<svg width="20" height="20" viewBox="0 0 20 20" fill="none" xmlns="http://www.w3.org/2000/svg">
<path d="M18.3512 9.1966V9.39984C18.3512 11.5847 18.3512 13.7692 18.3512 15.9533C18.3512 16.0984 18.3648 16.1831 18.5451 16.223C18.8785 16.2956 19.0884 16.5932 19.0958 16.9489C19.1032 17.3046 19.0958 17.653 19.1019 18.0051C19.1041 18.0434 19.1143 18.081 19.1319 18.1153C19.1496 18.1497 19.1742 18.1801 19.2044 18.2047C19.3377 18.2804 19.448 18.3896 19.5237 18.521C19.5995 18.6525 19.638 18.8014 19.6353 18.9523C19.6427 19.1943 19.644 19.4362 19.6353 19.6782C19.6267 19.9202 19.5304 19.9903 19.2995 20C19.2526 20 19.2057 20 19.1587 20H0.828405C0.404904 20 0.343169 19.9419 0.345638 19.5246C0.345638 19.2971 0.345638 19.0685 0.364159 18.841C0.369607 18.7131 0.409482 18.5889 0.479738 18.481C0.549994 18.373 0.648133 18.2852 0.764201 18.2265C0.805555 18.2082 0.839854 18.1774 0.862072 18.1387C0.88429 18.0999 0.893261 18.0552 0.887671 18.0111C0.887671 17.6724 0.887671 17.3324 0.887671 16.9937C0.887671 16.5823 1.0988 16.3126 1.50502 16.2134C1.61738 16.1855 1.6359 16.1299 1.63466 16.0355C1.63466 15.6569 1.63466 15.2782 1.63466 14.9007V9.1966C1.04942 9.0236 0.893844 8.81309 0.893844 8.22876C0.893844 7.93479 0.900018 7.64081 0.893844 7.34804C0.892983 7.31218 0.884526 7.27689 0.869011 7.2444C0.853495 7.21191 0.831258 7.18294 0.803711 7.15931C0.660121 7.08118 0.541982 6.96489 0.462904 6.82384C0.383827 6.68278 0.347029 6.52271 0.35675 6.36206C0.35675 6.08865 0.35675 5.81524 0.35675 5.53094C0.300412 5.52257 0.244721 5.51044 0.190066 5.49464C0.143576 5.48132 0.101718 5.45574 0.0690656 5.42068C0.036413 5.38563 0.0142224 5.34246 0.00491938 5.29588C-0.00438367 5.2493 -0.000441235 5.20112 0.0163155 5.15659C0.0330722 5.11206 0.0619984 5.0729 0.0999333 5.04339C0.157554 4.9998 0.220114 4.96286 0.286373 4.9333C3.42333 3.32025 6.55946 1.70478 9.69477 0.0868926C9.7873 0.0301127 9.89427 0 10.0034 0C10.1126 0 10.2196 0.0301127 10.3121 0.0868926C13.4507 1.71043 16.5922 3.32993 19.7366 4.9454C19.7835 4.9696 19.8477 4.98532 19.8724 5.02404C19.9292 5.11598 20.0206 5.23212 19.9959 5.31439C19.9712 5.39665 19.8366 5.45593 19.7489 5.51884C19.7267 5.53336 19.6872 5.5261 19.6329 5.53094C19.6329 5.87089 19.644 6.20237 19.6329 6.53385C19.6284 6.65856 19.5895 6.77975 19.5204 6.88456C19.4512 6.98936 19.3544 7.07385 19.2402 7.12907C19.1966 7.15001 19.1611 7.18414 19.1389 7.22641C19.1166 7.26868 19.1089 7.31684 19.1168 7.36377C19.1168 7.65653 19.1168 7.95051 19.1168 8.24449C19.0945 8.81188 18.9217 9.03811 18.3512 9.1966ZM7.8168 18.0897C7.82299 18.0761 7.82795 18.0619 7.83161 18.0474C7.83161 17.6845 7.83161 17.33 7.83161 16.9707C7.83161 16.6114 8.03904 16.3101 8.36994 16.2327C8.55021 16.1904 8.5786 16.1117 8.5786 15.9545C8.57367 13.768 8.57367 11.5827 8.5786 9.39863V9.1966C7.99583 9.03206 7.83779 8.81551 7.83779 8.22876V7.26093H5.21529C5.20719 7.27702 5.20138 7.29412 5.198 7.31175C5.198 7.67468 5.198 8.02915 5.198 8.38846C5.20529 8.55975 5.15147 8.72819 5.0458 8.86484C4.94013 9.0015 4.7892 9.09783 4.61893 9.13731C4.4683 9.17119 4.45101 9.23894 4.45101 9.36354C4.45101 10.2177 4.45101 11.0718 4.45101 11.9259C4.45101 13.276 4.45101 14.6261 4.45101 15.9762C4.44303 16.0311 4.45692 16.0868 4.48981 16.1319C4.52269 16.177 4.57203 16.2079 4.62757 16.2182C4.81006 16.2906 4.9659 16.4154 5.07453 16.5763C5.15675 16.7453 5.19654 16.9311 5.19059 17.1183C5.20664 17.4401 5.19059 17.7643 5.19059 18.0861L7.8168 18.0897ZM12.1444 18.0897H14.7632C14.7743 18.0692 14.7805 18.0643 14.7805 18.0583C14.7805 17.6954 14.7805 17.3409 14.7879 16.9828C14.7953 16.6247 15.0003 16.3101 15.3386 16.2327C15.5127 16.194 15.5349 16.1117 15.5349 15.9678C15.5349 13.7845 15.5349 11.6008 15.5349 9.41678C15.5417 9.37186 15.5417 9.3262 15.5349 9.28128C15.5223 9.23606 15.4921 9.19743 15.4509 9.17361C14.9175 8.97762 14.7904 8.80462 14.7904 8.24933V7.26819H12.1444C12.1444 7.65411 12.1444 8.02552 12.1444 8.39571C12.1532 8.564 12.1019 8.73004 11.9994 8.86535C11.8969 9.00066 11.7496 9.09681 11.5826 9.13731C11.4147 9.17482 11.3987 9.25103 11.3987 9.39016C11.3987 11.5871 11.3987 13.7837 11.3987 15.9799C11.3987 16.0065 11.3888 16.0379 11.3987 16.0573C11.432 16.1093 11.4641 16.1783 11.5135 16.2001C11.9456 16.3343 12.1382 16.5763 12.1407 17.0155C12.1469 17.3663 12.1444 17.7171 12.1444 18.0837V18.0897ZM18.1722 4.80265L18.1821 4.76514C18.15 4.74579 18.1166 4.72522 18.0833 4.70707C15.4287 3.34001 12.7741 1.97335 10.1195 0.607101C10.0772 0.589156 10.0316 0.579897 9.98554 0.579897C9.93946 0.579897 9.89387 0.589156 9.85158 0.607101C7.20686 1.96932 4.56419 3.33195 1.92358 4.69497C1.8779 4.71796 1.83592 4.74941 1.75443 4.80265H18.1722ZM9.99727 5.35189H1.41118C1.34451 5.35189 1.27784 5.35189 1.21116 5.35189C1.0025 5.36399 0.900018 5.4523 0.892609 5.65071C0.882732 5.90476 0.882732 6.16003 0.892609 6.41408C0.889118 6.45531 0.894773 6.49678 0.909184 6.53567C0.923595 6.57455 0.946423 6.60991 0.976099 6.63933C1.00577 6.66876 1.0416 6.69154 1.08111 6.70612C1.12062 6.72069 1.16288 6.72672 1.20499 6.72379C1.26504 6.72681 1.3252 6.72681 1.38525 6.72379H18.5969C18.6439 6.72379 18.6908 6.72379 18.7365 6.72379C18.9834 6.71169 19.0822 6.61612 19.0884 6.37053C19.0884 6.18785 19.0884 6.00759 19.0884 5.8225C19.0884 5.40996 19.0254 5.34826 18.6031 5.34826L9.99727 5.35189ZM19.0896 19.4544V19.2378C19.0896 18.6813 19.055 18.645 18.4969 18.645H1.40748C1.31563 18.6338 1.22241 18.6408 1.13338 18.6656C1.04695 18.7055 0.93212 18.7866 0.919773 18.8628C0.90102 19.0599 0.897718 19.258 0.909895 19.4556L19.0896 19.4544ZM10.8443 16.1698C10.8443 16.1009 10.8579 16.0488 10.8579 15.9992C10.8579 13.7894 10.8579 11.5791 10.8579 9.36838C10.8579 9.20264 10.7961 9.17361 10.6492 9.17603C10.2096 9.18329 9.77009 9.18692 9.33177 9.17603C9.14533 9.17603 9.11446 9.23773 9.11446 9.40105C9.1194 11.5859 9.1194 13.7708 9.11446 15.9557V16.1722L10.8443 16.1698ZM17.7907 16.1698C17.7993 16.1222 17.8051 16.0741 17.808 16.0258C17.808 13.7958 17.808 11.567 17.808 9.33935C17.808 9.20748 17.7598 9.1724 17.6339 9.17361C17.161 9.17361 16.6893 9.17361 16.2164 9.17361C16.1707 9.17718 16.1253 9.18405 16.0806 9.19417V16.1662L17.7907 16.1698ZM2.1841 9.1966V16.1698H3.88922V9.1966H2.1841ZM4.63621 7.26698H1.45069V7.66258H4.63621V7.26698ZM11.5863 7.26698H8.40081V7.66379H11.5925L11.5863 7.26698ZM15.346 7.66742H18.534V7.2694H15.346V7.66742ZM11.5789 17.134C11.6123 16.7868 11.5505 16.7178 11.2184 16.7178H8.7527C8.42797 16.7178 8.35759 16.8025 8.41192 17.134H11.5789ZM15.3583 8.22876C15.3077 8.56146 15.3769 8.64735 15.6966 8.64735H18.1895C18.5056 8.64735 18.5784 8.55299 18.5179 8.22876H15.3583ZM1.45563 17.1364H4.62881C4.66214 16.7965 4.5967 16.7227 4.27074 16.7227C3.44761 16.7227 2.62448 16.7227 1.80135 16.7227C1.47539 16.7227 1.40748 16.805 1.45563 17.1364ZM18.5253 17.1425C18.5661 16.8001 18.5006 16.7227 18.1747 16.7227C17.345 16.7227 16.5152 16.7227 15.6855 16.7227C15.3719 16.7227 15.288 16.8352 15.3694 17.1425H18.5253ZM1.45563 8.22876C1.40871 8.56267 1.47539 8.64251 1.80135 8.64251C2.63106 8.64251 3.46078 8.64251 4.2905 8.64251C4.60658 8.64251 4.68807 8.53484 4.61275 8.22876H1.45563ZM8.3971 8.22876C8.37365 8.58081 8.43168 8.64251 8.76751 8.64251C9.59065 8.64251 10.4138 8.64251 11.2369 8.64251C11.5542 8.64251 11.6308 8.54452 11.5641 8.22876H8.3971ZM1.44575 18.0825H4.62634V17.6954H1.44575V18.0825ZM11.5851 17.6966H8.3971V18.0813H11.5851V17.6966ZM15.346 18.0825H18.529V17.6954H15.346V18.0825Z" fill="#003755"/>
</svg>
