<svg width="15" height="24" viewBox="0 0 15 24" fill="none" xmlns="http://www.w3.org/2000/svg">
<path d="M3 0.0749991C2.47031 0.187499 1.94531 0.478124 1.54688 0.885937C1.15313 1.28437 0.979688 1.57969 0.703125 2.31094C0.253125 3.51094 0 4.87031 0 6.075C0 7.60312 0.773438 8.69062 2.17969 9.15L2.60156 9.28594L2.24063 14.8734C1.99219 18.6562 1.87969 20.6812 1.88438 21.1453L1.89844 21.825L2.07188 22.1812C2.28281 22.6078 2.55469 22.8703 2.99063 23.0766C3.27656 23.2125 3.34688 23.2266 3.75 23.2266C4.15313 23.2266 4.22344 23.2125 4.50938 23.0766C4.94531 22.8703 5.21719 22.6078 5.42813 22.1812L5.60156 21.825L5.59688 20.8594C5.59219 20.0625 5.35313 16.1203 4.9125 9.48281L4.89844 9.29062L5.32031 9.15C5.55 9.075 5.87344 8.93437 6.03281 8.84062C6.64219 8.48437 7.14844 7.83281 7.36875 7.125C7.4625 6.81094 7.47656 6.68437 7.47188 5.95312C7.46719 4.73437 7.26563 3.59062 6.83906 2.43281C6.54375 1.62656 6.35625 1.29375 5.95313 0.885937C5.3625 0.285937 4.63125 -9.22941e-07 3.72656 0.00468658C3.49688 0.00468658 3.16875 0.0374991 3 0.0749991ZM4.38281 0.820312C5.00625 0.984374 5.53594 1.40156 5.82656 1.96406C6.45469 3.15469 6.91406 5.67656 6.69844 6.7125C6.57656 7.30312 6.16406 7.89375 5.66719 8.18906C5.52656 8.26875 5.16094 8.41406 4.85156 8.50781C4.27969 8.67656 4.125 8.775 4.125 8.9625C4.125 9.01406 4.29375 11.6672 4.5 14.8641C4.70625 18.0562 4.875 20.8641 4.875 21.0984C4.875 21.3375 4.85156 21.6141 4.81875 21.7219C4.74375 21.9797 4.35469 22.3687 4.09688 22.4437C3.65625 22.575 3.30469 22.4812 2.97656 22.1484C2.68594 21.8625 2.625 21.675 2.625 21.0844C2.625 20.8406 2.79375 18.0281 3 14.8359C3.20625 11.6437 3.375 8.99531 3.375 8.95312C3.375 8.775 3.21094 8.67187 2.61094 8.48906C1.78125 8.23594 1.41094 7.97812 1.05938 7.3875C0.810938 6.97031 0.73125 6.54375 0.764063 5.76562C0.820313 4.44844 1.18125 2.92031 1.66406 1.97344C1.93125 1.44375 2.50313 0.984374 3.09844 0.824999C3.43594 0.735937 4.04063 0.731249 4.38281 0.820312Z" fill="#003755"/>
<path d="M9.86719 0.117187L9.75 0.229687V3.54844C9.75 7.275 9.75 7.23281 10.0875 7.9125C10.2797 8.30625 10.5891 8.66719 11.0484 9.05156L11.2406 9.21094L10.8703 14.8594C10.6172 18.7078 10.5 20.7187 10.5094 21.1687C10.5234 21.825 10.5234 21.8297 10.6969 22.1812C10.9078 22.6078 11.1797 22.8703 11.6156 23.0766C11.9016 23.2125 11.9719 23.2266 12.375 23.2266C12.7781 23.2266 12.8484 23.2125 13.1344 23.0766C13.5703 22.8703 13.8422 22.6078 14.0531 22.1766L14.2266 21.825L14.2172 20.7891C14.2125 20.1094 14.0906 17.9766 13.8563 14.4844L13.5094 9.21094L13.6781 9.07031C14.1234 8.71406 14.4703 8.30625 14.6625 7.9125C15 7.23281 15 7.275 15 3.54844V0.229687L14.8828 0.117187C14.8125 0.0421866 14.7141 -9.22941e-07 14.625 -9.22941e-07C14.5359 -9.22941e-07 14.4375 0.0421866 14.3672 0.117187L14.25 0.229687V3.525C14.25 6.3 14.2406 6.86719 14.1797 7.09219C14.0297 7.67344 13.725 8.08594 13.1156 8.53594C12.9422 8.66719 12.7828 8.82187 12.7688 8.87812C12.7547 8.93437 12.9141 11.6109 13.1203 14.8266C13.3313 18.0422 13.5 20.8641 13.5 21.0984C13.5 21.675 13.4391 21.8625 13.1484 22.1484C12.675 22.6266 12.075 22.6266 11.6016 22.1484C11.3109 21.8625 11.25 21.675 11.25 21.0891C11.25 20.8453 11.4188 18.0234 11.625 14.8125C11.8359 11.6016 11.9906 8.92969 11.9766 8.87344C11.9672 8.82187 11.8078 8.66719 11.6344 8.53594C11.025 8.08594 10.7203 7.67344 10.5703 7.09219C10.5094 6.86719 10.5 6.3 10.5 3.525V0.229687L10.3828 0.117187C10.3125 0.0421866 10.2141 -9.22941e-07 10.125 -9.22941e-07C10.0359 -9.22941e-07 9.9375 0.0421866 9.86719 0.117187Z" fill="#003755"/>
<path d="M11.3672 0.117176L11.25 0.229676V3.18749V6.1453L11.3672 6.2578C11.5172 6.41249 11.7328 6.41249 11.8828 6.2578L12 6.1453V3.18749V0.229676L11.8828 0.117176C11.8125 0.0421759 11.7141 -1.15676e-05 11.625 -1.15676e-05C11.5359 -1.15676e-05 11.4375 0.0421759 11.3672 0.117176Z" fill="#003755"/>
<path d="M12.8672 0.117176L12.75 0.229676V3.18749V6.1453L12.8672 6.2578C13.0172 6.41249 13.2328 6.41249 13.3828 6.2578L13.5 6.1453V3.18749V0.229676L13.3828 0.117176C13.3125 0.0421759 13.2141 -1.15676e-05 13.125 -1.15676e-05C13.0359 -1.15676e-05 12.9375 0.0421759 12.8672 0.117176Z" fill="#003755"/>
</svg>
